<svg width="16" height="17" viewBox="0 0 16 17" fill="none" xmlns="http://www.w3.org/2000/svg">
<path d="M7.0008 4.69149C8.0247 4.69023 9.02596 4.99278 9.87784 5.56085C10.7297 6.12891 11.3939 6.93695 11.7863 7.88268C12.1787 8.8284 12.2817 9.86929 12.0823 10.8736C11.8828 11.8779 11.3899 12.8004 10.6659 13.5244C9.94188 14.2484 9.01933 14.7414 8.01504 14.9408C7.01075 15.1403 5.96986 15.0373 5.02413 14.6448C4.07841 14.2524 3.27037 13.5883 2.7023 12.7364C2.13423 11.8845 1.83168 10.8833 1.83294 9.85935C1.83462 8.48926 2.37963 7.17577 3.34843 6.20698C4.31723 5.23818 5.63071 4.69317 7.0008 4.69149V4.69149ZM7.0008 2.85855C5.61617 2.85855 4.26264 3.26914 3.11136 4.0384C1.96009 4.80765 1.06278 5.90103 0.532907 7.18026C0.00303336 8.45949 -0.135606 9.86711 0.134521 11.2251C0.404649 12.5832 1.07141 13.8306 2.05049 14.8097C3.02957 15.7887 4.27699 16.4555 5.63501 16.7256C6.99303 16.9957 8.40066 16.8571 9.67989 16.3272C10.9591 15.7974 12.0525 14.9001 12.8217 13.7488C13.591 12.5975 14.0016 11.244 14.0016 9.85935C14.0016 8.00262 13.264 6.22194 11.9511 4.90904C10.6382 3.59613 8.85752 2.85855 7.0008 2.85855Z" fill="url(#paint0_linear)"/>
<path d="M7.00082 12.4052C8.4068 12.4052 9.54657 11.2655 9.54657 9.85949C9.54657 8.45352 8.4068 7.31375 7.00082 7.31375C5.59485 7.31375 4.45508 8.45352 4.45508 9.85949C4.45508 11.2655 5.59485 12.4052 7.00082 12.4052Z" fill="url(#paint1_linear)"/>
<path d="M7.90354 10.7594C8.40063 10.2623 8.40063 9.45638 7.90354 8.95929C7.40645 8.4622 6.60051 8.4622 6.10343 8.95929C5.60634 9.45638 5.60634 10.2623 6.10343 10.7594C6.60051 11.2565 7.40645 11.2565 7.90354 10.7594Z" fill="#33AADA"/>
<path d="M11.5035 7.16089L9.70337 5.36078L6.10314 8.961L7.90326 10.7611L11.5035 7.16089Z" fill="#33AADA"/>
<path d="M12.8498 7.60657L9.69941 7.16107L9.25391 4.01071L12.3979 0.860352L12.7288 4.13163L16.0001 4.46258L12.8498 7.60657Z" fill="#33AADA"/>
<defs>
<linearGradient id="paint0_linear" x1="16.4073" y1="-0.425458" x2="3.60223" y2="13.5761" gradientUnits="userSpaceOnUse">
<stop stop-color="#665ED0"/>
<stop offset="1" stop-color="#0073B1"/>
</linearGradient>
<linearGradient id="paint1_linear" x1="16.4073" y1="-0.425309" x2="3.60225" y2="13.5763" gradientUnits="userSpaceOnUse">
<stop stop-color="#665ED0"/>
<stop offset="1" stop-color="#0073B1"/>
</linearGradient>
</defs>
</svg>
