<svg width="14" height="16" viewBox="0 0 14 16" fill="none" xmlns="http://www.w3.org/2000/svg">
<path d="M5.93243 0.0952C4.91797 0.269244 3.9596 0.688446 3.13812 1.31745C2.31665 1.94646 1.65617 2.76683 1.21238 3.70939C0.768582 4.65194 0.554485 5.68904 0.588141 6.73324C0.621797 7.77743 0.902219 8.79809 1.40576 9.70916L0.239093 13.0264C0.220963 13.0775 0.217984 13.133 0.230525 13.1858C0.243065 13.2387 0.270575 13.2867 0.309659 13.3238C0.348743 13.361 0.39769 13.3857 0.450458 13.395C0.503226 13.4042 0.557505 13.3976 0.606594 13.3759L3.64576 12.0549C4.52903 12.6106 5.53199 12.9402 6.56842 13.0153C7.60484 13.0905 8.64373 12.9089 9.59578 12.4862C10.5478 12.0635 11.3845 11.4124 12.034 10.5887C12.6835 9.76511 13.1263 8.79364 13.3243 7.75785C13.5224 6.72205 13.4697 5.65291 13.171 4.64233C12.8722 3.63175 12.3362 2.70997 11.6091 1.95622C10.882 1.20247 9.98547 0.639309 8.99666 0.31514C8.00785 -0.0090292 6.95631 -0.0845053 5.93243 0.0952V0.0952Z" fill="#CAEDFF"/>
<path d="M12.25 5.93012C13.2165 5.93012 14 5.1345 14 4.15305C14 3.1716 13.2165 2.37598 12.25 2.37598C11.2835 2.37598 10.5 3.1716 10.5 4.15305C10.5 5.1345 11.2835 5.93012 12.25 5.93012Z" fill="#0091CA"/>
<path d="M1.75 5.92994C2.7165 5.92994 3.5 5.13432 3.5 4.15287C3.5 3.17142 2.7165 2.37579 1.75 2.37579C0.783502 2.37579 0 3.17142 0 4.15287C0 5.13432 0.783502 5.92994 1.75 5.92994Z" fill="#0091CA"/>
<path d="M7.00008 5.33759C6.53859 5.33759 6.08747 5.19862 5.70375 4.93826C5.32004 4.67791 5.02097 4.30785 4.84436 3.8749C4.66776 3.44194 4.62155 2.96553 4.71158 2.5059C4.80162 2.04628 5.02384 1.62409 5.35017 1.29272C5.67649 0.961345 6.09225 0.735678 6.54487 0.644253C6.99749 0.552828 7.46665 0.599751 7.89301 0.779088C8.31937 0.958424 8.68379 1.26212 8.94018 1.65177C9.19657 2.04142 9.33342 2.49953 9.33342 2.96816C9.33342 3.59657 9.08758 4.19924 8.65 4.6436C8.21241 5.08795 7.61892 5.33759 7.00008 5.33759ZM8.75008 6.5223H5.25008V16H8.75008V6.5223Z" fill="url(#paint0_linear)"/>
<path d="M14 7.11435H10.5V15.4074H14V7.11435Z" fill="#0091CA"/>
<path d="M3.5 7.11475H0V15.4078H3.5V7.11475Z" fill="#0091CA"/>
<defs>
<linearGradient id="paint0_linear" x1="-3.59325" y1="-19.8909" x2="7.68319" y2="9.39894" gradientUnits="userSpaceOnUse">
<stop stop-color="#665ED0"/>
<stop offset="1" stop-color="#0073B1"/>
</linearGradient>
</defs>
</svg>
