<svg width="16" height="16" viewBox="0 0 16 16" fill="none" xmlns="http://www.w3.org/2000/svg">
<path d="M8.00016 14.6667C11.6821 14.6667 14.6668 11.6819 14.6668 8.00004C14.6668 4.31814 11.6821 1.33337 8.00016 1.33337C4.31826 1.33337 1.3335 4.31814 1.3335 8.00004C1.3335 11.6819 4.31826 14.6667 8.00016 14.6667Z" stroke="white" stroke-linecap="round" stroke-linejoin="round"/>
<path d="M6.06006 6.00001C6.21679 5.55446 6.52616 5.17875 6.93336 4.93944C7.34056 4.70012 7.81932 4.61264 8.28484 4.69249C8.75036 4.77234 9.1726 5.01436 9.47678 5.3757C9.78095 5.73703 9.94743 6.19436 9.94672 6.66668C9.94672 8.00001 7.94672 8.66668 7.94672 8.66668" stroke="white" stroke-linecap="round" stroke-linejoin="round"/>
<path d="M8 11.3334H8.00667" stroke="white" stroke-linecap="round" stroke-linejoin="round"/>
</svg>
