<svg width="17" height="17" viewBox="0 0 17 17" fill="none" xmlns="http://www.w3.org/2000/svg">
<g clip-path="url(#clip0)">
<path d="M8.02588 3.6149H3.35921C3.00559 3.6149 2.66645 3.75537 2.4164 4.00542C2.16635 4.25547 2.02588 4.59461 2.02588 4.94823V14.2816C2.02588 14.6352 2.16635 14.9743 2.4164 15.2244C2.66645 15.4744 3.00559 15.6149 3.35921 15.6149H12.6925C13.0462 15.6149 13.3853 15.4744 13.6354 15.2244C13.8854 14.9743 14.0259 14.6352 14.0259 14.2816V9.6149" stroke="#fff" stroke-linecap="round" stroke-linejoin="round"/>
<path d="M13.0259 2.61484C13.2911 2.34962 13.6508 2.20062 14.0259 2.20062C14.401 2.20062 14.7607 2.34962 15.0259 2.61484C15.2911 2.88005 15.4401 3.23976 15.4401 3.61484C15.4401 3.98991 15.2911 4.34962 15.0259 4.61484L8.69255 10.9482L6.02588 11.6148L6.69255 8.94817L13.0259 2.61484Z" stroke="#fff" stroke-linecap="round" stroke-linejoin="round"/>
</g>
<defs>
<clipPath id="clip0">
<rect width="16" height="16" fill="white" transform="translate(0.692383 0.948242)"/>
</clipPath>
</defs>
</svg>
