<svg width="14" height="16" viewBox="0 0 14 16" fill="none" xmlns="http://www.w3.org/2000/svg">
<path d="M10.1818 0H0.636364C0.467589 0 0.305728 0.0624338 0.186387 0.173566C0.0670454 0.284699 0 0.435427 0 0.592593V15.4074C0 15.5646 0.0670454 15.7153 0.186387 15.8264C0.305728 15.9376 0.467589 16 0.636364 16H13.3636C13.5324 16 13.6943 15.9376 13.8136 15.8264C13.933 15.7153 14 15.5646 14 15.4074V3.55556L10.1818 0Z" fill="#CAEDFF"/>
<path d="M10.1819 0V3.55556H14.0001L10.1819 0Z" fill="#65C3E8"/>
<path d="M7 7.70403C6.49656 7.70403 6.00442 7.56501 5.58582 7.30455C5.16722 7.04409 4.84097 6.67389 4.64831 6.24076C4.45565 5.80763 4.40524 5.33103 4.50346 4.87122C4.60167 4.41142 4.8441 3.98906 5.20009 3.65755C5.55608 3.32605 6.00964 3.1003 6.50341 3.00883C6.99718 2.91737 7.50898 2.96431 7.9741 3.14372C8.43922 3.32313 8.83677 3.62695 9.11647 4.01675C9.39617 4.40656 9.54545 4.86484 9.54545 5.33366C9.54545 5.96232 9.27727 6.56523 8.79991 7.00976C8.32254 7.45429 7.6751 7.70403 7 7.70403ZM8.90909 8.88921H5.09091V16.0003H8.90909V8.88921ZM14 15.4077V10.667H10.8182V16.0003H13.3636C13.5324 16.0003 13.6943 15.9379 13.8136 15.8268C13.933 15.7156 14 15.5649 14 15.4077ZM3.18182 12.4448H0V15.4077C0 15.5649 0.0670454 15.7156 0.186387 15.8268C0.305728 15.9379 0.467589 16.0003 0.636364 16.0003H3.18182V12.4448Z" fill="url(#paint0_linear)"/>
<defs>
<linearGradient id="paint0_linear" x1="15.9409" y1="22.7974" x2="4.06378" y2="7.17039" gradientUnits="userSpaceOnUse">
<stop stop-color="#665ED0"/>
<stop offset="1" stop-color="#0073B1"/>
</linearGradient>
</defs>
</svg>
