<svg width="18" height="16" viewBox="0 0 18 16" fill="none" xmlns="http://www.w3.org/2000/svg">
<path d="M7.61452 5.46225C9.14383 5.46225 10.3836 4.23948 10.3836 2.73112C10.3836 1.22277 9.14383 0 7.61452 0C6.08521 0 4.84546 1.22277 4.84546 2.73112C4.84546 4.23948 6.08521 5.46225 7.61452 5.46225Z" fill="#0073B1"/>
<path d="M15.8389 3.72833L4.96338 14.4548L6.23022 15.7043C6.31893 15.7978 6.42615 15.8722 6.54522 15.9232C6.6643 15.9741 6.7927 16.0003 6.92249 16.0003C7.05227 16.0003 7.18068 15.9741 7.29975 15.9232C7.41883 15.8722 7.52604 15.7978 7.61475 15.7043L17.798 5.6606C17.9345 5.51129 18.0065 5.3153 17.9987 5.11438C17.9899 4.95492 17.9178 4.8053 17.798 4.69788L16.8219 3.72833C16.7575 3.66434 16.6809 3.61354 16.5966 3.57888C16.5122 3.54421 16.4218 3.52637 16.3304 3.52637C16.239 3.52637 16.1485 3.54421 16.0641 3.57888C15.9798 3.61354 15.9032 3.66434 15.8389 3.72833V3.72833Z" fill="#0091CA"/>
<path opacity="0.8" d="M8.88157 14.4545L7.61473 15.704C7.52452 15.7939 7.4165 15.8646 7.2974 15.9116C7.17831 15.9586 7.05068 15.9809 6.92246 15.9771C6.7943 15.9805 6.66679 15.958 6.54775 15.911C6.42871 15.864 6.32065 15.7936 6.2302 15.704L0.200573 9.75696C0.071638 9.62903 -0.000732422 9.45598 -0.000732422 9.27559C-0.000732422 9.09521 0.071638 8.92216 0.200573 8.79423L1.17667 7.83151C1.31877 7.69977 1.50782 7.62862 1.70279 7.63351C1.87329 7.63878 2.03488 7.70989 2.15276 7.83151L8.88157 14.4545Z" fill="#33AADA"/>
<path d="M6.92237 12.5225L9.69143 9.7914V6.82812H5.53784V11.157L6.92237 12.5225Z" fill="#0073B1"/>
</svg>
