<svg width="17" height="17" viewBox="0 0 17 17" fill="none" xmlns="http://www.w3.org/2000/svg">
<g clip-path="url(#clip0)">
<path d="M8.57861 10.1519C9.68318 10.1519 10.5786 9.25643 10.5786 8.15186C10.5786 7.04729 9.68318 6.15186 8.57861 6.15186C7.47404 6.15186 6.57861 7.04729 6.57861 8.15186C6.57861 9.25643 7.47404 10.1519 8.57861 10.1519Z" stroke="#0275B1" stroke-linecap="round" stroke-linejoin="round"/>
<path d="M13.5118 10.1518C13.423 10.3529 13.3966 10.5759 13.4358 10.7922C13.475 11.0085 13.5781 11.208 13.7318 11.3651L13.7718 11.4051C13.8958 11.529 13.9941 11.676 14.0612 11.8379C14.1283 11.9998 14.1628 12.1733 14.1628 12.3485C14.1628 12.5237 14.1283 12.6972 14.0612 12.8591C13.9941 13.0209 13.8958 13.168 13.7718 13.2918C13.648 13.4158 13.5009 13.5141 13.339 13.5812C13.1772 13.6483 13.0037 13.6829 12.8284 13.6829C12.6532 13.6829 12.4797 13.6483 12.3179 13.5812C12.156 13.5141 12.0089 13.4158 11.8851 13.2918L11.8451 13.2518C11.688 13.0981 11.4884 12.995 11.2722 12.9558C11.0559 12.9166 10.8329 12.9431 10.6318 13.0318C10.4346 13.1163 10.2664 13.2566 10.148 13.4355C10.0295 13.6144 9.96597 13.824 9.96512 14.0385V14.1518C9.96512 14.5054 9.82464 14.8446 9.57459 15.0946C9.32454 15.3447 8.98541 15.4851 8.63178 15.4851C8.27816 15.4851 7.93902 15.3447 7.68897 15.0946C7.43893 14.8446 7.29845 14.5054 7.29845 14.1518V14.0918C7.29329 13.8712 7.22186 13.6571 7.09346 13.4776C6.96505 13.2981 6.78561 13.1613 6.57845 13.0851C6.37737 12.9964 6.15432 12.9699 5.93806 13.0091C5.72179 13.0484 5.52224 13.1515 5.36512 13.3051L5.32512 13.3451C5.20129 13.4691 5.05423 13.5675 4.89237 13.6346C4.73051 13.7017 4.557 13.7362 4.38178 13.7362C4.20656 13.7362 4.03306 13.7017 3.8712 13.6346C3.70933 13.5675 3.56228 13.4691 3.43845 13.3451C3.31448 13.2213 3.21614 13.0743 3.14904 12.9124C3.08194 12.7505 3.0474 12.577 3.0474 12.4018C3.0474 12.2266 3.08194 12.0531 3.14904 11.8912C3.21614 11.7294 3.31448 11.5823 3.43845 11.4585L3.47845 11.4185C3.63214 11.2614 3.73524 11.0618 3.77445 10.8455C3.81367 10.6293 3.78719 10.4062 3.69845 10.2051C3.61394 10.008 3.47362 9.8398 3.29476 9.72135C3.1159 9.6029 2.90631 9.53934 2.69178 9.53848H2.57845C2.22483 9.53848 1.88569 9.398 1.63564 9.14796C1.38559 8.89791 1.24512 8.55877 1.24512 8.20515C1.24512 7.85153 1.38559 7.51239 1.63564 7.26234C1.88569 7.01229 2.22483 6.87181 2.57845 6.87181H2.63845C2.85911 6.86665 3.07312 6.79523 3.25265 6.66682C3.43218 6.53842 3.56893 6.35897 3.64512 6.15181C3.73386 5.95074 3.76033 5.72769 3.72112 5.51142C3.68191 5.29516 3.57881 5.0956 3.42512 4.93848L3.38512 4.89848C3.26115 4.77465 3.1628 4.6276 3.0957 4.46573C3.02861 4.30387 2.99407 4.13037 2.99407 3.95515C2.99407 3.77993 3.02861 3.60642 3.0957 3.44456C3.1628 3.2827 3.26115 3.13565 3.38512 3.01181C3.50895 2.88785 3.656 2.7895 3.81786 2.7224C3.97973 2.6553 4.15323 2.62077 4.32845 2.62077C4.50367 2.62077 4.67717 2.6553 4.83904 2.7224C5.0009 2.7895 5.14795 2.88785 5.27178 3.01181L5.31178 3.05181C5.4689 3.20551 5.66846 3.3086 5.88472 3.34782C6.10099 3.38703 6.32404 3.36056 6.52512 3.27181H6.57845C6.77563 3.18731 6.94379 3.04698 7.06225 2.86812C7.1807 2.68926 7.24426 2.47967 7.24512 2.26515V2.15181C7.24512 1.79819 7.38559 1.45905 7.63564 1.20901C7.88569 0.958957 8.22483 0.818481 8.57845 0.818481C8.93207 0.818481 9.27121 0.958957 9.52126 1.20901C9.77131 1.45905 9.91178 1.79819 9.91178 2.15181V2.21181C9.91264 2.42634 9.9762 2.63593 10.0947 2.81479C10.2131 2.99365 10.3813 3.13397 10.5784 3.21848C10.7795 3.30722 11.0026 3.3337 11.2188 3.29448C11.4351 3.25527 11.6347 3.15217 11.7918 2.99848L11.8318 2.95848C11.9556 2.83451 12.1027 2.73617 12.2645 2.66907C12.4264 2.60197 12.5999 2.56743 12.7751 2.56743C12.9503 2.56743 13.1238 2.60197 13.2857 2.66907C13.4476 2.73617 13.5946 2.83451 13.7184 2.95848C13.8424 3.08231 13.9408 3.22936 14.0079 3.39123C14.075 3.55309 14.1095 3.72659 14.1095 3.90181C14.1095 4.07704 14.075 4.25054 14.0079 4.4124C13.9408 4.57427 13.8424 4.72132 13.7184 4.84515L13.6784 4.88515C13.5248 5.04227 13.4217 5.24183 13.3824 5.45809C13.3432 5.67435 13.3697 5.8974 13.4584 6.09848V6.15181C13.543 6.34899 13.6833 6.51716 13.8621 6.63561C14.041 6.75406 14.2506 6.81763 14.4651 6.81848H14.5784C14.9321 6.81848 15.2712 6.95896 15.5213 7.20901C15.7713 7.45905 15.9118 7.79819 15.9118 8.15181C15.9118 8.50544 15.7713 8.84457 15.5213 9.09462C15.2712 9.34467 14.9321 9.48515 14.5784 9.48515H14.5184C14.3039 9.486 14.0943 9.54957 13.9155 9.66802C13.7366 9.78647 13.5963 9.95463 13.5118 10.1518V10.1518Z" stroke="#0275B1" stroke-linecap="round" stroke-linejoin="round"/>
</g>
<defs>
<clipPath id="clip0">
<rect width="16" height="16" fill="white" transform="translate(0.578613 0.151855)"/>
</clipPath>
</defs>
</svg>
