<svg width="21" height="16" viewBox="0 0 21 16" fill="none" xmlns="http://www.w3.org/2000/svg">
<path fill-rule="evenodd" clip-rule="evenodd" d="M9.33159 9.90754H11.6165H12.1306C14.5297 9.90754 17.5571 9.29216 19.0423 8.92294V1.84612C19.0423 0.799987 18.2997 0 17.3286 0H3.61941C2.64834 0 1.90576 0.799987 1.90576 1.84612V8.92294C3.39093 9.29216 6.41838 9.90754 8.8175 9.90754H9.33159Z" fill="#CAEDFF"/>
<path d="M6.47554 8.00015C7.73744 8.00015 8.76042 6.8981 8.76042 5.53865C8.76042 4.1792 7.73744 3.07715 6.47554 3.07715C5.21365 3.07715 4.19067 4.1792 4.19067 5.53865C4.19067 6.8981 5.21365 8.00015 6.47554 8.00015Z" fill="#0091CA"/>
<path d="M14.4726 8.00015C15.7345 8.00015 16.7575 6.8981 16.7575 5.53865C16.7575 4.1792 15.7345 3.07715 14.4726 3.07715C13.2107 3.07715 12.1877 4.1792 12.1877 5.53865C12.1877 6.8981 13.2107 8.00015 14.4726 8.00015Z" fill="url(#paint0_linear)"/>
<path d="M20.4133 10.4614L20.0706 9.23064C19.9564 8.92295 19.6708 8.73834 19.3852 8.79988C18.2998 9.04603 15.6722 9.6614 13.2731 9.84601V12.8614C13.2731 13.3537 13.0446 13.7229 12.7019 13.969V15.3844C12.7019 15.7536 12.9304 15.9998 13.2731 15.9998H16.1292C16.4719 15.9998 16.7004 15.7536 16.7004 15.3844V11.8768C18.0714 11.6306 19.2709 11.446 19.9564 11.2614C20.3562 11.1998 20.5276 10.8306 20.4133 10.4614Z" fill="#2569B4"/>
<path d="M11.6165 9.90797H8.81749C6.18989 9.90797 2.76259 9.16951 1.50591 8.86183C1.2203 8.80029 0.93469 8.9849 0.820447 9.29259L0.477716 10.5233C0.363473 10.8926 0.59196 11.2618 0.93469 11.3233C1.62015 11.4464 2.81971 11.6926 4.19063 11.9387V15.3848C4.19063 15.754 4.41912 16.0002 4.76185 16.0002H7.61794C7.96067 16.0002 8.18916 15.754 8.18916 15.3848V12.3079C8.41764 12.3079 8.64613 12.3079 8.81749 12.3079H11.6165C11.9592 12.3079 12.1877 12.0618 12.1877 11.6926V10.5233C12.1877 10.1541 11.9592 9.90797 11.6165 9.90797Z" fill="#0091CA"/>
<defs>
<linearGradient id="paint0_linear" x1="13.4917" y1="2.16307" x2="16.8047" y2="11.9867" gradientUnits="userSpaceOnUse">
<stop stop-color="#665ED0"/>
<stop offset="1" stop-color="#0073B1"/>
</linearGradient>
</defs>
</svg>
